<svg width="24" height="25" viewBox="0 0 24 25" fill="none" xmlns="http://www.w3.org/2000/svg">
<path d="M23.9206 3.55671L12.6466 23.7166C12.4138 24.1328 11.8158 24.1353 11.5795 23.7211L0.081978 3.55865C-0.175417 3.10727 0.210558 2.56053 0.722054 2.65196L12.0081 4.66928C12.0801 4.68215 12.1538 4.68202 12.2258 4.6689L23.2759 2.65485C23.7857 2.56194 24.1735 3.10444 23.9206 3.55671Z" fill="url(#paint0_linear_148_631)"/>
<path d="M17.3841 0.00591599L9.04097 1.64071C8.90384 1.66758 8.80232 1.78379 8.79404 1.92325L8.28083 10.5911C8.26876 10.7952 8.45625 10.9537 8.65551 10.9077L10.9783 10.3717C11.1957 10.3215 11.3921 10.5129 11.3474 10.7315L10.6573 14.1109C10.6108 14.3383 10.8244 14.5328 11.0465 14.4653L12.4812 14.0294C12.7036 13.9619 12.9173 14.1569 12.8703 14.3846L11.7735 19.6928C11.7049 20.0248 12.1466 20.2059 12.3307 19.9212L12.4538 19.7311L19.2522 6.16365C19.366 5.93648 19.1697 5.67745 18.9202 5.7256L16.5293 6.18705C16.3046 6.23037 16.1134 6.02113 16.1768 5.8013L17.7374 0.391472C17.8008 0.171274 17.609 -0.0381523 17.3841 0.00591599Z" fill="url(#paint1_linear_148_631)"/>
<defs>
<linearGradient id="paint0_linear_148_631" x1="-0.198743" y1="1.93147" x2="13.8326" y2="20.9872" gradientUnits="userSpaceOnUse">
<stop stop-color="#41D1FF"/>
<stop offset="1" stop-color="#BD34FE"/>
</linearGradient>
<linearGradient id="paint1_linear_148_631" x1="11.3601" y1="0.44976" x2="13.8983" y2="17.8616" gradientUnits="userSpaceOnUse">
<stop stop-color="#FFEA83"/>
<stop offset="0.0833333" stop-color="#FFDD35"/>
<stop offset="1" stop-color="#FFA800"/>
</linearGradient>
</defs>
</svg>
