<svg width="24" height="24" viewBox="0 0 24 24" fill="none" xmlns="http://www.w3.org/2000/svg">
<g clip-path="url(#clip0_149_646)">
<path d="M12 0C5.37452 0 0 5.37452 0 12C0 18.6255 5.37452 24 12 24C18.6255 24 24 18.6255 24 12C24 5.37452 18.6255 0 12 0Z" fill="#514C87"/>
<path d="M19.0611 16.3181C18.3198 16.4942 17.9445 16.6564 17.0271 17.2541C15.5954 18.1807 14.0294 18.6116 14.0294 18.6116C14.0294 18.6116 13.8997 18.8062 13.5244 18.8942C12.8757 19.0517 10.434 19.1861 10.2116 19.1907C9.61396 19.1954 9.24794 19.0378 9.14601 18.7923C8.83558 18.051 9.5908 17.7266 9.5908 17.7266C9.5908 17.7266 9.424 17.6247 9.3267 17.532C9.23867 17.444 9.14601 17.268 9.11821 17.3328C9.00238 17.6154 8.94215 18.3058 8.63172 18.6162C8.20547 19.0471 7.39929 18.9035 6.92207 18.6533C6.39852 18.3753 6.95914 17.722 6.95914 17.722C6.95914 17.722 6.67651 17.8888 6.44948 17.5459C6.24562 17.2309 6.05566 16.6934 6.10663 16.0309C6.16222 15.2757 7.00547 14.5436 7.00547 14.5436C7.00547 14.5436 6.8572 13.427 7.34369 12.2826C7.78385 11.2402 8.96995 10.4015 8.96995 10.4015C8.96995 10.4015 7.97381 9.29884 8.34446 8.30734C8.58539 7.65869 8.68269 7.66332 8.76145 7.63552C9.03944 7.52896 9.30817 7.41313 9.5074 7.19537C10.5035 6.12046 11.773 6.32432 11.773 6.32432C11.773 6.32432 12.3754 4.49421 12.9313 4.85097C13.1028 4.96216 13.719 6.33359 13.719 6.33359C13.719 6.33359 14.3769 5.94904 14.451 6.09266C14.8495 6.86641 14.8958 8.3444 14.7198 9.24324C14.4232 10.7259 13.6819 11.5228 13.3854 12.0232C13.3159 12.139 14.1823 12.505 14.729 14.0201C15.234 15.4054 14.7846 16.5683 14.8634 16.6981C14.8773 16.7212 14.8819 16.7305 14.8819 16.7305C14.8819 16.7305 15.4611 16.7768 16.624 16.0587C17.2448 15.6741 17.9815 15.2432 18.8201 15.234C19.6309 15.2201 19.6726 16.1699 19.0611 16.3181ZM20.1638 15.6371C20.0804 14.9792 19.5244 14.5251 18.8109 14.5344C17.7452 14.5483 16.851 15.0996 16.258 15.4656C16.0263 15.6093 15.8271 15.7158 15.6557 15.7946C15.6927 15.2571 15.6603 14.5529 15.3823 13.7792C15.0441 12.8525 14.59 12.2826 14.2657 11.9537C14.641 11.407 15.1553 10.61 15.3962 9.37761C15.6047 8.32587 15.5398 6.69035 15.0626 5.77297C14.9653 5.58765 14.8032 5.45328 14.5993 5.39768C14.5159 5.37452 14.3584 5.32819 14.0479 5.41622C13.58 4.44788 13.4178 4.34595 13.2927 4.26255C13.0333 4.09575 12.7275 4.05869 12.4402 4.16525C12.0557 4.30425 11.7267 4.6749 11.4163 5.33282C11.3699 5.43012 11.3282 5.52278 11.2912 5.61544C10.7028 5.65714 9.77612 5.87027 8.99311 6.71815C8.89581 6.82471 8.70585 6.90348 8.50663 6.97761H8.51126C8.10354 7.12124 7.91821 7.45483 7.69118 8.05714C7.37612 8.90039 7.70045 9.72973 8.02014 10.2672C7.58462 10.6564 7.00547 11.2772 6.69968 12.0046C6.31975 12.9035 6.27805 13.7838 6.29195 14.261C5.96763 14.6039 5.46724 15.2479 5.41164 15.9707C5.33751 16.9807 5.70354 17.6664 5.8657 17.9166C5.91203 17.9907 5.963 18.051 6.01859 18.1112C6.00006 18.2363 5.99543 18.3707 6.02323 18.5097C6.08346 18.834 6.28732 19.0981 6.59775 19.2649C7.20933 19.5892 8.06184 19.7282 8.71975 19.3992C8.95605 19.6494 9.38693 19.8903 10.1699 19.8903H10.2163C10.4155 19.8903 12.9452 19.756 13.6819 19.5753C14.0109 19.4965 14.2379 19.3575 14.3862 19.2324C14.8587 19.0842 16.1653 18.6394 17.3977 17.8425C18.2688 17.2772 18.5699 17.1568 19.2186 16.9992C19.8487 16.8463 20.2425 16.2718 20.1638 15.6371Z" fill="white"/>
</g>
<defs>
<clipPath id="clip0_149_646">
<rect width="24" height="24" fill="white"/>
</clipPath>
</defs>
</svg>
