<svg width="101" height="181" viewBox="0 0 101 181" fill="none" xmlns="http://www.w3.org/2000/svg">
<path d="M5.17899 39.4165C18.3933 55.6766 28.8373 58.2398 50 57.3392C29.8509 54.4004 21.1294 49.9628 12.903 34.094C10.5497 32.4371 9.31833 31.9973 7.46356 33.1164C5.41024 34.2036 4.60847 35.2264 5.17899 39.4165Z" fill="white"/>
<path d="M15.7647 21.9149C20.9049 42.2171 29.2914 48.9262 48.8467 56.9898C31.8237 45.8671 25.7857 38.1798 25.0009 20.3259C23.5649 17.8346 22.6339 16.9187 20.4828 17.156C18.1652 17.281 17.0088 17.8727 15.7647 21.9149Z" fill="white"/>
<path d="M35.5828 11.1726C31.3533 31.6839 35.9738 41.3791 50.0539 57.1645C39.5867 39.7308 37.5063 30.1797 44.5873 13.7712C44.3816 10.9031 43.9433 9.67282 41.9041 8.9481C39.7641 8.04975 38.4654 8.07787 35.5828 11.1726Z" fill="white"/>
<path d="M95.817 39.4165C82.3091 55.6766 71.633 58.2398 50 57.3392C70.5968 54.4004 79.5122 49.9628 87.9214 34.094C90.3269 32.4371 91.5857 31.9973 93.4817 33.1164C95.5806 34.2036 96.4002 35.2264 95.817 39.4165Z" fill="white"/>
<path d="M84.1253 21.1868C79.2169 41.7533 70.7739 48.7937 50.9624 57.6012C68.141 45.8155 74.1726 37.8788 74.6793 19.9288C76.1029 17.3758 77.0374 16.4224 79.2351 16.5821C81.6008 16.623 82.79 17.1748 84.1253 21.1868Z" fill="white"/>
<path d="M64.6154 10.3466C69.3079 30.9634 64.8488 41.0117 50.9746 57.6722C61.1703 39.5048 63.0703 29.719 55.5869 13.3955C55.7348 10.4761 56.1513 9.20783 58.1931 8.37914C60.333 7.36967 61.6435 7.33873 64.6154 10.3466Z" fill="white"/>
<rect x="50" y="56" width="1" height="68" fill="white"/>
<rect x="48" y="119" width="4.80744" height="25.239" rx="2.40372" fill="white"/>
</svg>
