<svg width="101" height="181" viewBox="0 0 101 181" fill="none" xmlns="http://www.w3.org/2000/svg">
<path d="M0.197743 37.2576C14.7964 55.2487 26.3346 58.0848 49.7143 57.0883C27.4544 53.8367 17.8192 48.9267 8.73095 31.3685C6.13114 29.5352 4.77073 29.0486 2.72165 30.2868C0.45322 31.4898 -0.432544 32.6214 0.197743 37.2576Z" fill="white"/>
<path d="M11.909 17.6065C17.5955 40.0668 26.8736 47.489 48.5075 56.4098C29.675 44.1048 22.9952 35.6003 22.127 15.8486C20.5383 13.0925 19.5083 12.0793 17.1286 12.3417C14.5647 12.48 13.2853 13.1347 11.909 17.6065Z" fill="white"/>
<path d="M33.8338 5.72252C29.1546 28.4141 34.2663 39.1399 49.8431 56.6033C38.2632 37.3164 35.9616 26.75 43.7953 8.59733C43.5678 5.42431 43.0829 4.06328 40.827 3.26152C38.4595 2.26768 37.0228 2.29879 33.8338 5.72252Z" fill="white"/>
<path d="M100.47 37.2168C85.5063 55.1958 73.6794 58.03 49.7143 57.0341C72.5315 53.7847 82.4079 48.878 91.7236 31.3317C94.3885 29.4996 95.783 29.0134 97.8834 30.2507C100.209 31.4528 101.117 32.5837 100.47 37.2168Z" fill="white"/>
<path d="M87.5362 16.8015C82.106 39.5541 72.7656 47.3429 50.8481 57.0867C69.8528 44.0481 76.5256 35.2678 77.0861 15.4097C78.6611 12.5853 79.6949 11.5307 82.1262 11.7073C84.7434 11.7526 86.0589 12.363 87.5362 16.8015Z" fill="white"/>
<path d="M65.9524 4.80865C71.1438 27.617 66.2106 38.7333 50.8616 57.1649C62.1411 37.0663 64.2431 26.2403 55.9642 8.18163C56.1278 4.95191 56.5886 3.54881 58.8474 2.63204C61.2148 1.51526 62.6646 1.48103 65.9524 4.80865Z" fill="white"/>
<rect x="49.7144" y="56.4873" width="1.20186" height="101.197" fill="white"/>
<rect x="48.0317" y="155.761" width="4.80744" height="25.239" rx="2.40372" fill="white"/>
</svg>
