<svg width="400" height="397" viewBox="0 0 400 397" fill="none" xmlns="http://www.w3.org/2000/svg">
<g filter="url(#filter0_d_111_1089)">
<path d="M161.114 137.166C171.674 146.841 179.042 147.56 193.392 144.915C179.368 144.878 172.997 142.73 165.876 132.838C164.113 131.949 163.232 131.772 162.073 132.704C160.776 133.634 160.326 134.4 161.114 137.166Z" fill="white"/>
<path d="M166.688 124.225C172.177 137.645 178.576 141.432 192.762 145.065C180.015 139.089 175.132 134.404 172.865 122.242C171.639 120.673 170.913 120.135 169.461 120.506C167.884 120.816 167.149 121.334 166.688 124.225Z" fill="white"/>
<path d="M179.233 114.942C178.32 129.412 182.426 135.611 193.606 145.068C184.743 134.131 182.392 127.785 185.657 115.852C185.238 113.905 184.819 113.104 183.351 112.805C181.797 112.396 180.909 112.542 179.233 114.942Z" fill="white"/>
<path d="M223.246 128.389C215.488 140.652 208.378 143.416 193.392 144.915C207.299 140.932 213.018 137.077 217.301 125.574C218.801 124.224 219.626 123.805 221.038 124.374C222.588 124.902 223.249 125.511 223.246 128.389Z" fill="white"/>
<path d="M213.479 117.107C212.105 131.68 206.999 137.324 194.272 145.28C204.906 135.538 208.272 129.513 206.881 117.159C207.61 115.271 208.158 114.527 209.68 114.424C211.306 114.223 212.175 114.486 213.479 117.107Z" fill="white"/>
<path d="M199.055 111.565C204.268 125.243 202.184 132.563 194.287 145.328C199.516 131.886 199.871 124.994 193.161 114.529C192.979 112.514 193.142 111.604 194.461 110.838C195.831 109.939 196.726 109.791 199.055 111.565Z" fill="white"/>
<rect x="193.498" y="145.668" width="1" height="32" transform="rotate(-8.0407 193.498 145.668)" fill="white"/>
<rect x="195.154" y="171.692" width="4.80744" height="25.239" rx="2.40372" transform="rotate(-8.0407 195.154 171.692)" fill="white"/>
<path d="M128.369 200.467C142.027 196.159 146.334 190.138 151.218 176.388C144.174 188.514 139.129 192.958 127.002 194.179C125.35 195.261 124.756 195.936 124.984 197.405C125.141 198.994 125.579 199.766 128.369 200.467Z" fill="white"/>
<path d="M119.948 189.169C134.315 191.125 140.793 187.477 151.034 177.008C139.485 185.059 132.986 186.946 121.319 182.827C119.348 183.104 118.519 183.465 118.114 184.908C117.594 186.428 117.675 187.324 119.948 189.169Z" fill="white"/>
<path d="M118.182 173.663C130.257 181.689 137.678 181.232 151.459 176.278C137.555 178.486 130.884 177.349 122.181 168.554C120.286 167.944 119.383 167.907 118.39 169.028C117.259 170.17 116.941 171.011 118.182 173.663Z" fill="white"/>
<path d="M151.834 142.27C158.574 155.119 157.414 162.659 151.218 176.387C154.723 162.351 154.243 155.471 146.423 146.01C146.004 144.037 146.054 143.113 147.253 142.174C148.484 141.097 149.343 140.828 151.834 142.27Z" fill="white"/>
<path d="M137.179 145.088C149.113 153.564 151.448 160.807 151.974 175.808C148.854 161.727 145.32 155.8 133.926 150.827C132.655 149.252 132.285 148.405 132.956 147.036C133.595 145.527 134.257 144.906 137.179 145.088Z" fill="white"/>
<path d="M125.167 154.808C139.62 157.133 144.917 162.597 152.023 175.819C142.997 164.569 137.206 160.815 124.788 161.394C122.951 160.544 122.245 159.948 122.241 158.422C122.147 156.787 122.467 155.938 125.167 154.808Z" fill="white"/>
<rect x="151.923" y="176.672" width="1" height="32" transform="rotate(-68.0407 151.923 176.672)" fill="white"/>
<rect x="175.289" y="188.25" width="4.80744" height="25.239" rx="2.40372" transform="rotate(-68.0407 175.289 188.25)" fill="white"/>
<path d="M168.29 259.916C171.388 245.933 168.327 239.192 158.861 228.088C165.841 240.251 167.167 246.842 162.16 257.955C162.272 259.926 162.559 260.779 163.946 261.316C165.4 261.974 166.288 261.981 168.29 259.916Z" fill="white"/>
<path d="M154.295 261.559C163.172 250.095 163.252 242.66 159.307 228.557C160.504 242.584 158.889 249.156 149.489 257.201C148.743 259.046 148.641 259.945 149.688 261.016C150.745 262.227 151.561 262.605 154.295 261.559Z" fill="white"/>
<path d="M139.984 255.336C152.972 248.891 156.287 242.236 158.887 227.825C153.847 240.969 149.527 246.178 137.559 249.318C136.083 250.653 135.599 251.417 136.074 252.838C136.497 254.388 137.067 255.084 139.984 255.336Z" fill="white"/>
<path d="M129.622 210.496C144.121 211.083 150.07 215.858 158.861 228.088C148.458 218.035 142.26 215.01 130.156 217.052C128.238 216.428 127.463 215.923 127.249 214.415C126.932 212.81 127.128 211.932 129.622 210.496Z" fill="white"/>
<path d="M124.735 224.596C138.043 218.498 145.484 220.098 158.738 227.143C144.983 222.804 138.082 222.901 128.079 230.283C126.08 230.596 125.161 230.493 124.311 229.227C123.324 227.919 123.117 227.036 124.735 224.596Z" fill="white"/>
<path d="M127.148 239.859C136.387 228.505 143.768 226.649 158.771 227.106C144.516 229.298 138.37 232.436 132.662 243.481C131.007 244.645 130.138 244.959 128.815 244.2C127.352 243.464 126.776 242.762 127.148 239.859Z" fill="white"/>
<rect x="159.46" y="227.619" width="1" height="32" transform="rotate(-128.041 159.46 227.619)" fill="white"/>
<rect x="181.17" y="213.172" width="4.80744" height="25.239" rx="2.40372" transform="rotate(-128.041 181.17 213.172)" fill="white"/>
<path d="M240.537 253.093C229.976 243.418 222.608 242.698 208.259 245.344C222.282 245.381 228.653 247.529 235.774 257.421C237.537 258.309 238.419 258.487 239.577 257.555C240.875 256.625 241.324 255.859 240.537 253.093Z" fill="white"/>
<path d="M234.963 266.034C229.473 252.614 223.074 248.827 208.888 245.193C221.635 251.169 226.518 255.854 228.785 268.017C230.011 269.586 230.738 270.124 232.189 269.753C233.766 269.443 234.501 268.925 234.963 266.034Z" fill="white"/>
<path d="M222.418 275.317C223.331 260.847 219.224 254.648 208.044 245.19C216.907 256.128 219.258 262.474 215.993 274.407C216.412 276.353 216.832 277.154 218.3 277.454C219.854 277.862 220.741 277.717 222.418 275.317Z" fill="white"/>
<path d="M178.404 261.87C186.162 249.607 193.272 246.842 208.259 245.344C194.351 249.327 188.632 253.182 184.349 264.685C182.85 266.035 182.024 266.453 180.612 265.884C179.063 265.357 178.401 264.748 178.404 261.87Z" fill="white"/>
<path d="M188.172 273.152C189.545 258.578 194.651 252.935 207.379 244.979C196.744 254.721 193.378 260.746 194.769 273.1C194.04 274.988 193.492 275.732 191.97 275.835C190.344 276.036 189.476 275.773 188.172 273.152Z" fill="white"/>
<path d="M202.596 278.694C197.383 265.016 199.466 257.696 207.364 244.931C202.134 258.372 201.779 265.264 208.49 275.73C208.671 277.745 208.508 278.655 207.189 279.421C205.82 280.32 204.924 280.468 202.596 278.694Z" fill="white"/>
<rect x="208.152" y="244.591" width="1" height="32" transform="rotate(171.959 208.152 244.591)" fill="white"/>
<rect x="206.496" y="218.566" width="4.80744" height="25.239" rx="2.40372" transform="rotate(171.959 206.496 218.566)" fill="white"/>
<path d="M270.817 190.832C257.158 195.14 252.851 201.161 247.967 214.911C255.011 202.785 260.057 198.341 272.184 197.12C273.835 196.038 274.43 195.363 274.202 193.894C274.045 192.305 273.607 191.533 270.817 190.832Z" fill="white"/>
<path d="M279.237 202.13C264.871 200.174 258.392 203.822 248.152 214.291C259.701 206.24 266.2 204.353 277.867 208.471C279.838 208.194 280.667 207.834 281.072 206.391C281.591 204.871 281.511 203.975 279.237 202.13Z" fill="white"/>
<path d="M281.004 217.636C268.929 209.61 261.508 210.067 247.727 215.021C261.631 212.813 268.302 213.95 277.004 222.745C278.899 223.355 279.802 223.392 280.796 222.27C281.927 221.129 282.245 220.288 281.004 217.636Z" fill="white"/>
<path d="M247.352 249.029C240.611 236.179 241.772 228.64 247.967 214.911C244.463 228.947 244.942 235.828 252.763 245.288C253.182 247.262 253.132 248.186 251.933 249.124C250.701 250.202 249.843 250.471 247.352 249.029Z" fill="white"/>
<path d="M262.007 246.211C250.072 237.735 247.737 230.491 247.211 215.491C250.331 229.572 253.866 235.499 265.26 240.472C266.531 242.047 266.901 242.894 266.229 244.263C265.591 245.772 264.928 246.392 262.007 246.211Z" fill="white"/>
<path d="M274.018 236.491C259.566 234.166 254.268 228.702 247.163 215.48C256.188 226.73 261.979 230.483 274.398 229.904C276.234 230.755 276.941 231.351 276.944 232.876C277.038 234.512 276.719 235.361 274.018 236.491Z" fill="white"/>
<rect x="247.262" y="214.627" width="1" height="32" transform="rotate(111.959 247.262 214.627)" fill="white"/>
<rect x="223.896" y="203.049" width="4.80744" height="25.239" rx="2.40372" transform="rotate(111.959 223.896 203.049)" fill="white"/>
<path d="M231.176 133.364C228.077 147.347 231.138 154.087 240.604 165.192C233.624 153.028 232.299 146.437 237.305 135.324C237.193 133.353 236.906 132.501 235.519 131.963C234.066 131.305 233.177 131.298 231.176 133.364Z" fill="white"/>
<path d="M245.17 131.721C236.293 143.184 236.213 150.619 240.159 164.722C238.961 150.695 240.577 144.123 249.977 136.079C250.722 134.233 250.824 133.335 249.777 132.263C248.721 131.053 247.905 130.675 245.17 131.721Z" fill="white"/>
<path d="M259.482 137.944C246.494 144.388 243.178 151.043 240.578 165.455C245.619 152.31 249.939 147.101 261.906 143.962C263.382 142.626 263.866 141.862 263.391 140.441C262.968 138.891 262.399 138.195 259.482 137.944Z" fill="white"/>
<path d="M269.843 182.784C255.345 182.196 249.395 177.421 240.604 165.192C251.007 175.245 257.206 178.27 269.309 176.227C271.228 176.851 272.003 177.356 272.216 178.864C272.534 180.47 272.337 181.347 269.843 182.784Z" fill="white"/>
<path d="M274.73 168.683C261.422 174.781 253.982 173.181 240.728 166.137C254.482 170.475 261.383 170.378 271.386 162.996C273.386 162.683 274.304 162.786 275.155 164.053C276.141 165.36 276.348 166.244 274.73 168.683Z" fill="white"/>
<path d="M272.318 153.421C263.078 164.775 255.697 166.63 240.694 166.173C254.949 163.982 261.096 160.843 266.803 149.799C268.458 148.634 269.328 148.32 270.65 149.08C272.114 149.816 272.69 150.517 272.318 153.421Z" fill="white"/>
<rect x="240.005" y="165.661" width="1" height="32" transform="rotate(51.9593 240.005 165.661)" fill="white"/>
<rect x="218.296" y="180.107" width="4.80744" height="25.239" rx="2.40372" transform="rotate(51.9593 218.296 180.107)" fill="white"/>
<path d="M147.204 50.11C162.285 68.9957 174.205 71.9728 198.357 70.9267C175.362 67.5134 165.408 62.3593 156.019 43.928C153.334 42.0036 151.928 41.4928 149.812 42.7926C147.468 44.0553 146.553 45.2433 147.204 50.11Z" fill="white"/>
<path d="M159.302 29.4819C165.177 53.0591 174.762 60.8504 197.11 70.2147C177.656 57.2979 170.755 48.3705 169.858 27.6366C168.217 24.7435 167.153 23.6799 164.695 23.9554C162.046 24.1006 160.724 24.7878 159.302 29.4819Z" fill="white"/>
<path d="M181.952 17.0068C177.118 40.8267 182.399 52.0858 198.49 70.4176C186.528 50.1717 184.15 39.0799 192.243 20.0246C192.008 16.6938 191.507 15.2651 189.176 14.4235C186.73 13.3802 185.246 13.4129 181.952 17.0068Z" fill="white"/>
<path d="M250.791 50.067C235.332 68.9399 223.114 71.915 198.357 70.8696C221.928 67.4587 232.131 62.308 241.755 43.8892C244.508 41.9661 245.948 41.4556 248.118 42.7545C250.52 44.0164 251.458 45.2035 250.791 50.067Z" fill="white"/>
<path d="M237.429 28.6366C231.819 52.5206 222.17 60.6967 199.528 70.9249C219.161 57.2381 226.054 48.0211 226.634 27.1757C228.261 24.2108 229.328 23.1037 231.84 23.2891C234.544 23.3366 235.903 23.9774 237.429 28.6366Z" fill="white"/>
<path d="M215.132 16.0478C220.495 39.9902 215.399 51.6593 199.542 71.0074C211.195 49.9094 213.366 38.5451 204.814 19.5885C204.983 16.1981 205.459 14.7253 207.792 13.7629C210.238 12.5906 211.735 12.5547 215.132 16.0478Z" fill="white"/>
<rect x="198.357" y="70.2964" width="1.24157" height="106.228" fill="white"/>
<rect x="196.619" y="174.506" width="4.9663" height="26.494" rx="2.48315" fill="white"/>
<path d="M241.632 43.4819C243.627 67.7256 251.948 77.0198 272.804 90.0076C255.435 74.001 249.993 64.0365 252.517 43.4328C251.35 40.3035 250.459 39.0757 247.949 38.935C245.271 38.6337 243.832 39.0899 241.632 43.4819Z" fill="white"/>
<path d="M263.425 33.3868C255.048 56.2243 258.693 68.1547 272.16 88.7044C263.126 66.881 262.374 55.5519 273.324 37.9168C273.58 34.5866 273.287 33.0981 271.069 31.9157C268.765 30.5166 267.268 30.3261 263.425 33.3868Z" fill="white"/>
<path d="M289.471 36.0751C271.971 52.9718 270.047 65.2974 273.203 89.6632C274.592 66.0848 278.857 55.5623 296.402 44.4688C298.085 41.5836 298.471 40.1166 296.99 38.0851C295.527 35.821 294.263 34.9968 289.471 36.0751Z" fill="white"/>
<path d="M328.572 102.853C304.949 109.572 293.019 105.022 272.836 89.9601C294.539 100.662 306.007 102.26 324.477 92.5701C327.872 92.561 329.369 92.9656 330.457 95.2826C331.76 97.7021 331.877 99.2203 328.572 102.853Z" fill="white"/>
<path d="M329.456 77.4948C311.269 93.9995 298.558 95.2169 273.788 90.6776C297.986 90.6353 308.972 86.9779 321.222 70.0971C324.261 68.582 325.782 68.2803 327.785 69.8739C330.027 71.4637 330.805 72.7723 329.456 77.4948Z" fill="white"/>
<path d="M317.852 54.312C308.839 77.1578 297.977 83.8708 273.753 90.7535C295.437 80.0148 303.673 71.8762 307.196 51.3181C309.252 48.6155 310.482 47.6723 312.983 48.2159C315.697 48.6505 316.974 49.4798 317.852 54.312Z" fill="white"/>
<rect x="273.16" y="89.4863" width="1.26186" height="106.249" transform="rotate(34.3527 273.16 89.4863)" fill="white"/>
<rect x="212.886" y="174.54" width="5.04745" height="26.4991" rx="2.52372" transform="rotate(34.3527 212.886 174.54)" fill="white"/>
<path d="M345.125 149.202C326.836 164.138 323.952 175.943 324.966 199.863C328.271 177.089 333.262 167.231 351.112 157.933C352.975 155.273 353.47 153.881 352.211 151.785C350.988 149.464 349.838 148.557 345.125 149.202Z" fill="white"/>
<path d="M365.101 161.184C342.269 167.002 334.724 176.495 325.655 198.629C338.164 179.361 346.809 172.527 366.889 171.638C369.69 170.013 370.72 168.959 370.453 166.525C370.313 163.901 369.647 162.593 365.101 161.184Z" fill="white"/>
<path d="M377.183 183.616C354.115 178.828 343.212 184.058 325.459 199.995C345.065 188.148 355.807 185.793 374.26 193.807C377.486 193.575 378.869 193.079 379.685 190.771C380.695 188.348 380.663 186.878 377.183 183.616Z" fill="white"/>
<path d="M345.167 251.793C326.89 236.483 324.008 224.382 325.021 199.863C328.324 223.208 333.312 233.313 351.149 242.844C353.012 245.57 353.506 246.997 352.248 249.146C351.026 251.525 349.876 252.454 345.167 251.793Z" fill="white"/>
<path d="M365.92 238.559C342.791 233.004 334.873 223.447 324.967 201.023C338.222 220.467 347.148 227.294 367.335 227.868C370.206 229.479 371.278 230.537 371.099 233.024C371.053 235.702 370.432 237.048 365.92 238.559Z" fill="white"/>
<path d="M378.112 216.477C354.925 221.788 343.625 216.741 324.888 201.037C345.319 212.577 356.325 214.728 374.683 206.258C377.966 206.425 379.392 206.896 380.324 209.207C381.46 211.63 381.494 213.113 378.112 216.477Z" fill="white"/>
<rect x="325.576" y="199.863" width="1.22964" height="102.874" transform="rotate(90 325.576 199.863)" fill="white"/>
<rect x="224.657" y="198.142" width="4.91855" height="25.6574" rx="2.45928" transform="rotate(90 224.657 198.142)" fill="white"/>
<path d="M170.43 347.002C166.938 325.098 158.73 317.224 138.87 306.859C155.768 320.21 161.406 328.893 160.537 347.8C161.814 350.564 162.709 351.619 165.001 351.573C167.457 351.661 168.733 351.147 170.43 347.002Z" fill="white"/>
<path d="M151.315 357.688C157.351 336.345 153.212 325.751 139.546 308C149.269 327.215 150.736 337.464 142.002 354.255C142 357.3 142.369 358.633 144.467 359.554C146.659 360.667 148.033 360.737 151.315 357.688Z" fill="white"/>
<path d="M127.449 357.046C142.19 340.473 143.086 329.134 138.531 307.2C138.9 328.733 135.75 338.595 120.566 349.895C119.236 352.634 118.987 353.995 120.473 355.739C121.96 357.696 123.166 358.358 127.449 357.046Z" fill="white"/>
<path d="M87.2781 299.04C108.29 291.297 119.452 294.608 138.844 306.905C118.372 298.677 107.835 298.018 91.7128 308.105C88.6265 308.349 87.2376 308.084 86.0886 306.053C84.7362 303.944 84.5248 302.571 87.2781 299.04Z" fill="white"/>
<path d="M88.2294 322.156C103.622 305.892 115.094 303.905 137.929 306.318C115.932 308.031 106.197 312.117 96.227 328.312C93.5693 329.9 92.2074 330.279 90.2763 328.969C88.1281 327.679 87.3297 326.543 88.2294 322.156Z" fill="white"/>
<path d="M100.383 342.43C106.997 321.035 116.408 314.181 137.955 306.247C118.984 317.511 112.059 325.48 110.279 344.414C108.597 347.014 107.544 347.956 105.232 347.635C102.735 347.428 101.516 346.762 100.383 342.43Z" fill="white"/>
<rect x="138.582" y="307.357" width="1.15056" height="96.8773" transform="rotate(-150 138.582 307.357)" fill="white"/>
<rect x="187.495" y="225.859" width="4.60225" height="24.1618" rx="2.30112" transform="rotate(-150 187.495 225.859)" fill="white"/>
<path d="M325.001 290.98C302.443 284.536 291.226 288.885 272.412 303.29C292.764 293.059 303.608 291.536 321.344 300.821C324.565 300.832 325.976 300.445 326.956 298.228C328.139 295.913 328.217 294.46 325.001 290.98Z" fill="white"/>
<path d="M326.7 314.081C308.939 298.754 296.932 297.986 273.807 303.152C296.574 302.421 307.054 305.595 319.246 321.474C322.165 322.837 323.607 323.08 325.429 321.48C327.475 319.876 328.156 318.59 326.7 314.081Z" fill="white"/>
<path d="M315.417 336.673C306.119 315.134 295.65 309.206 272.587 303.768C293.393 313.04 301.439 320.467 305.485 340.074C307.516 342.574 308.709 343.421 311.046 342.776C313.587 342.225 314.76 341.365 315.417 336.673Z" fill="white"/>
<path d="M241.853 349.252C243.823 325.648 251.987 316.428 272.443 303.336C255.405 319.283 250.062 329.089 252.526 349.053C251.38 352.121 250.506 353.334 248.045 353.528C245.418 353.881 244.008 353.47 241.853 349.252Z" fill="white"/>
<path d="M264.438 358.674C255.728 336.647 258.952 324.762 271.472 303.95C263.282 325.803 262.846 336.962 273.915 353.759C274.249 357.016 274.004 358.491 271.885 359.757C269.687 361.239 268.242 361.497 264.438 358.674Z" fill="white"/>
<path d="M289.307 356.085C271.754 340.182 269.389 328.096 271.416 303.893C273.733 327.115 278.277 337.316 295.632 347.487C297.373 350.26 297.805 351.692 296.464 353.764C295.149 356.066 293.966 356.936 289.307 356.085Z" fill="white"/>
<rect x="272.761" y="303.789" width="1.21698" height="102.47" transform="rotate(145 272.761 303.789)" fill="white"/>
<rect x="216.499" y="220.468" width="4.86792" height="25.5566" rx="2.43396" transform="rotate(145 216.499 220.468)" fill="white"/>
<path d="M50.6985 252.794C69.3854 237.568 72.3312 225.534 71.2961 201.149C67.9187 224.366 62.8188 234.415 44.5816 243.894C42.6775 246.605 42.172 248.024 43.4581 250.161C44.7076 252.527 45.883 253.451 50.6985 252.794Z" fill="white"/>
<path d="M30.2875 240.579C53.6165 234.648 61.3258 224.971 70.5915 202.408C57.8107 222.05 48.9773 229.016 28.4617 229.922C25.599 231.579 24.5466 232.653 24.8192 235.135C24.9628 237.809 25.6428 239.144 30.2875 240.579Z" fill="white"/>
<path d="M17.9438 217.712C41.5129 222.592 52.6535 217.261 70.7923 201.015C50.7595 213.092 39.7844 215.493 20.9298 207.322C17.634 207.56 16.2204 208.065 15.3876 210.418C14.3553 212.887 14.3876 214.386 17.9438 217.712Z" fill="white"/>
<path d="M50.6559 148.211C69.3302 163.819 72.274 176.154 71.2396 201.149C67.8645 177.351 62.7681 167.05 44.5431 157.334C42.6403 154.555 42.1352 153.1 43.4204 150.91C44.669 148.485 45.8436 147.538 50.6559 148.211Z" fill="white"/>
<path d="M29.451 161.702C53.0836 167.365 61.1736 177.107 71.2941 199.967C57.7514 180.145 48.6314 173.185 28.0054 172.601C25.0718 170.958 23.9763 169.88 24.1598 167.344C24.2068 164.614 24.8408 163.242 29.451 161.702Z" fill="white"/>
<path d="M16.9946 184.213C40.685 178.799 52.2313 183.944 71.3757 199.953C50.4998 188.188 39.2551 185.996 20.4981 194.631C17.1434 194.46 15.6861 193.979 14.7338 191.624C13.5739 189.154 13.5383 187.642 16.9946 184.213Z" fill="white"/>
<rect x="70.672" y="201.149" width="1.25351" height="105.11" transform="rotate(-90 70.672 201.149)" fill="white"/>
<rect x="173.785" y="202.904" width="5.01406" height="26.2151" rx="2.50703" transform="rotate(-90 173.785 202.904)" fill="white"/>
<path d="M83.4954 98.5036C105.134 106.785 116.544 103.472 136.293 90.9192C115.39 99.2332 104.59 99.7986 87.9408 89.1369C84.7727 88.8492 83.3512 89.1079 82.1957 91.2048C80.8327 93.3808 80.6314 94.8037 83.4954 98.5036Z" fill="white"/>
<path d="M83.8121 75.6298C99.967 92.2378 111.713 94.0266 134.909 90.9352C112.447 89.6951 102.41 85.6699 91.7822 68.9985C89.0283 67.406 87.6297 67.0435 85.7 68.4606C83.5488 69.8623 82.7682 71.069 83.8121 75.6298Z" fill="white"/>
<path d="M96.8574 54.3754C104.151 76.3664 113.941 83.0994 136.162 90.4347C116.49 79.5217 109.214 71.5217 106.922 51.8842C105.138 49.2501 104.038 48.3138 101.683 48.7475C99.136 49.0705 97.9073 49.8158 96.8574 54.3754Z" fill="white"/>
<path d="M170.314 48.3317C166.344 71.384 157.518 79.752 136.266 90.872C154.402 76.6494 160.502 67.4619 159.796 47.6084C161.188 44.6894 162.152 43.571 164.59 43.5924C167.205 43.4709 168.557 43.9963 170.314 48.3317Z" fill="white"/>
<path d="M148.905 37.1184C155.578 59.5379 151.384 70.9534 137.274 90.3504C147.214 69.5564 148.602 58.616 139.159 41.1382C139.11 37.9047 139.478 36.4744 141.672 35.4117C143.961 34.1423 145.406 34.0132 148.905 37.1184Z" fill="white"/>
<path d="M124.216 37.5247C140.116 54.6816 141.402 66.7752 137.325 90.4119C137.044 67.3663 133.452 56.9397 117.253 45.4399C115.779 42.561 115.477 41.1155 116.975 39.1922C118.466 37.0413 119.705 36.2867 124.216 37.5247Z" fill="white"/>
<rect x="135.993" y="90.3989" width="1.20186" height="101.197" transform="rotate(-30 135.993 90.3989)" fill="white"/>
<rect x="184.172" y="177.213" width="4.80744" height="25.239" rx="2.40372" transform="rotate(-30 184.172 177.213)" fill="white"/>
<path d="M45.8278 173.135C69.6918 169.331 78.2707 160.388 89.5632 138.75C75.0175 157.161 65.5577 163.303 44.9584 162.356C41.9467 163.748 40.7977 164.723 40.8475 167.22C40.7511 169.896 41.3114 171.286 45.8278 173.135Z" fill="white"/>
<path d="M34.1853 152.309C57.4385 158.885 68.9813 154.376 88.3212 139.487C67.3853 150.08 56.22 151.679 37.9261 142.162C34.6081 142.16 33.1558 142.562 32.1518 144.849C30.9396 147.237 30.8638 148.734 34.1853 152.309Z" fill="white"/>
<path d="M34.8844 126.307C52.9407 142.367 65.2947 143.344 89.1922 138.381C65.7321 138.782 54.9875 135.351 42.6761 118.808C39.6913 117.359 38.2091 117.087 36.3084 118.707C34.1761 120.327 33.4549 121.641 34.8844 126.307Z" fill="white"/>
<path d="M98.0833 82.5407C106.519 105.433 102.912 117.594 89.5142 138.722C98.4783 116.417 99.1968 104.937 88.206 87.3723C87.9409 84.0098 88.2289 82.4966 90.4419 81.2447C92.7403 79.7713 94.2353 79.541 98.0833 82.5407Z" fill="white"/>
<path d="M72.8975 83.5772C90.6173 100.348 92.7816 112.846 90.1528 137.725C88.2865 113.759 83.8354 103.153 66.1906 92.2906C64.4607 89.3951 64.0472 87.9113 65.4747 85.8072C66.8805 83.4668 68.1179 82.5969 72.8975 83.5772Z" fill="white"/>
<path d="M50.8089 96.8188C74.1182 104.024 81.5866 114.277 90.2307 137.754C77.9586 117.084 69.276 109.539 48.6467 107.6C45.8147 105.768 44.7877 104.62 45.1376 102.101C45.3634 99.3807 46.0886 98.0532 50.8089 96.8188Z" fill="white"/>
<rect x="89.0205" y="138.437" width="1.25354" height="105.548" transform="rotate(-60 89.0205 138.437)" fill="white"/>
<rect x="177.814" y="191.728" width="5.01417" height="26.3244" rx="2.50709" transform="rotate(-60 177.814 191.728)" fill="white"/>
<path d="M105.874 316.27C112.044 294.612 107.861 283.848 94.0202 265.799C103.856 285.327 105.326 295.735 96.4256 312.766C96.4177 315.858 96.7897 317.212 98.9186 318.152C101.142 319.286 102.537 319.359 105.874 316.27Z" fill="white"/>
<path d="M83.7007 317.918C98.4004 300.858 99.1288 289.332 94.154 267.138C94.8723 288.992 91.8326 299.053 76.5993 310.768C75.2927 313.57 75.0612 314.955 76.5982 316.702C78.1391 318.665 79.374 319.318 83.7007 317.918Z" fill="white"/>
<path d="M62.0075 307.103C82.6763 298.163 88.3587 288.109 93.5624 265.967C84.677 285.946 77.5531 293.675 58.7358 297.572C56.3378 299.524 55.5253 300.669 56.1463 302.912C56.6767 305.35 57.5033 306.476 62.0075 307.103Z" fill="white"/>
<path d="M49.8803 236.499C72.5389 238.373 81.3948 246.203 93.977 265.829C78.6571 249.485 69.2405 244.364 50.0786 246.744C47.1335 245.646 45.9683 244.807 45.7807 242.445C45.4397 239.924 45.8329 238.57 49.8803 236.499Z" fill="white"/>
<path d="M40.8529 258.185C61.9894 249.808 73.4003 252.894 93.3861 264.898C72.404 257.051 61.6928 256.641 45.5775 267.278C42.4509 267.601 41.0347 267.367 39.8184 265.333C38.3937 263.225 38.1453 261.838 40.8529 258.185Z" fill="white"/>
<path d="M43.3552 282.054C58.6082 265.194 70.2074 262.916 93.4409 264.843C71.152 267.084 61.3639 271.454 51.6137 288.12C48.9523 289.792 47.5786 290.209 45.5884 288.923C43.3785 287.662 42.5421 286.528 43.3552 282.054Z" fill="white"/>
<rect x="93.5421" y="266.134" width="1.16817" height="98.3597" transform="rotate(-125.043 93.5421 266.134)" fill="white"/>
<rect x="173.48" y="212.069" width="4.67267" height="24.5315" rx="2.33633" transform="rotate(-125.043 173.48 212.069)" fill="white"/>
<path d="M248.804 343.36C234.303 325.667 222.842 322.878 199.618 323.858C221.729 327.056 231.3 331.884 240.327 349.152C242.91 350.954 244.261 351.433 246.297 350.215C248.55 349.032 249.43 347.919 248.804 343.36Z" fill="white"/>
<path d="M237.171 362.685C231.522 340.597 222.306 333.298 200.817 324.525C219.523 336.626 226.159 344.99 227.021 364.414C228.599 367.124 229.622 368.121 231.986 367.863C234.533 367.727 235.804 367.083 237.171 362.685Z" fill="white"/>
<path d="M215.393 374.373C220.04 352.057 214.963 341.509 199.49 324.335C210.993 343.302 213.279 353.694 205.498 371.545C205.724 374.666 206.205 376.004 208.446 376.793C210.798 377.77 212.225 377.74 215.393 374.373Z" fill="white"/>
<path d="M149.201 343.4C164.065 325.719 175.813 322.932 199.618 323.911C176.953 327.107 167.143 331.932 157.89 349.188C155.243 350.989 153.857 351.468 151.771 350.251C149.461 349.069 148.56 347.957 149.201 343.4Z" fill="white"/>
<path d="M162.049 363.477C167.443 341.102 176.721 333.442 198.492 323.86C179.614 336.682 172.986 345.317 172.429 364.846C170.865 367.624 169.838 368.661 167.423 368.487C164.823 368.442 163.517 367.842 162.049 363.477Z" fill="white"/>
<path d="M183.489 375.271C178.332 352.841 183.232 341.909 198.478 323.783C187.274 343.548 185.186 354.195 193.41 371.954C193.248 375.13 192.79 376.51 190.546 377.412C188.195 378.51 186.754 378.544 183.489 375.271Z" fill="white"/>
<rect x="199.618" y="324.449" width="1.19382" height="99.5193" transform="rotate(-180 199.618 324.449)" fill="white"/>
<rect x="201.289" y="226.821" width="4.77529" height="24.8207" rx="2.38765" transform="rotate(-180 201.289 226.821)" fill="white"/>
<path d="M358.597 232.821C334.95 236.591 326.449 245.452 315.26 266.893C329.673 248.65 339.047 242.563 359.458 243.502C362.443 242.123 363.581 241.156 363.532 238.682C363.628 236.031 363.072 234.653 358.597 232.821Z" fill="white"/>
<path d="M370.134 253.458C347.092 246.941 335.654 251.41 316.49 266.164C337.236 255.666 348.299 254.082 366.427 263.512C369.715 263.514 371.154 263.116 372.149 260.85C373.35 258.484 373.425 257.001 370.134 253.458Z" fill="white"/>
<path d="M369.441 279.223C351.549 263.309 339.307 262.342 315.627 267.259C338.874 266.861 349.521 270.262 361.72 286.654C364.678 288.09 366.146 288.359 368.03 286.754C370.143 285.149 370.857 283.847 369.441 279.223Z" fill="white"/>
<path d="M306.817 322.591C298.458 299.907 302.033 287.857 315.308 266.921C306.426 289.023 305.714 300.399 316.604 317.804C316.867 321.136 316.582 322.635 314.389 323.876C312.111 325.336 310.63 325.564 306.817 322.591Z" fill="white"/>
<path d="M331.774 321.565C314.215 304.947 312.07 292.562 314.675 267.909C316.525 291.657 320.935 302.167 338.419 312.93C340.134 315.8 340.543 317.27 339.129 319.355C337.736 321.674 336.51 322.536 331.774 321.565Z" fill="white"/>
<path d="M353.661 308.443C330.564 301.303 323.163 291.143 314.598 267.881C326.759 288.362 335.362 295.838 355.804 297.76C358.61 299.576 359.628 300.713 359.281 303.209C359.057 305.905 358.339 307.22 353.661 308.443Z" fill="white"/>
<rect x="315.797" y="267.204" width="1.24214" height="104.588" transform="rotate(120 315.797 267.204)" fill="white"/>
<rect x="227.812" y="214.397" width="4.96856" height="26.0849" rx="2.48428" transform="rotate(120 227.812 214.397)" fill="white"/>
<path d="M308.486 80.1188C298.788 102.424 301.728 114.546 313.968 135.845C306.227 113.534 306.14 102.181 318.101 85.2195C318.551 81.9105 318.346 80.4076 316.202 79.0976C313.983 77.5662 312.5 77.2885 308.486 80.1188Z" fill="white"/>
<path d="M332.46 81.5223C314.286 97.6868 311.86 109.922 314.016 134.393C316.368 110.894 321.06 100.556 339.041 90.1913C340.84 87.3778 341.286 85.928 339.89 83.8379C338.521 81.5162 337.292 80.641 332.46 81.5223Z" fill="white"/>
<path d="M354.139 96.1987C330.735 102.818 323.215 112.77 314.482 135.731C326.848 115.611 335.579 108.355 356.281 106.87C359.127 105.123 360.16 104.013 359.816 101.523C359.596 98.8368 358.872 97.5133 354.139 96.1987Z" fill="white"/>
<path d="M357.038 173.518C333.048 168.275 324.685 158.628 314.018 135.819C328.085 155.505 337.435 162.332 358.289 162.522C361.285 164.118 362.413 165.182 362.276 167.738C362.281 170.485 361.667 171.879 357.038 173.518Z" fill="white"/>
<path d="M369.8 151.59C345.975 157.539 334.2 152.606 314.518 136.9C335.86 148.298 347.269 150.266 366.041 141.181C369.434 141.282 370.917 141.735 371.929 144.085C373.153 146.546 373.22 148.067 369.8 151.59Z" fill="white"/>
<path d="M370.53 125.68C351.793 141.551 339.049 142.333 314.451 136.951C338.634 137.735 349.737 134.456 362.555 118.006C365.644 116.596 367.174 116.346 369.121 118.007C371.306 119.672 372.04 121.006 370.53 125.68Z" fill="white"/>
<rect x="314.528" y="135.555" width="1.2617" height="106.235" transform="rotate(62.5566 314.528 135.555)" fill="white"/>
<rect x="221.225" y="182.017" width="5.04677" height="26.4956" rx="2.52339" transform="rotate(62.5566 221.225 182.017)" fill="white"/>
<path d="M106.237 145.919C125.869 149.978 135.151 145.56 150.265 132.09C133.575 142.101 124.432 144.088 108.728 137.301C105.982 137.497 104.804 137.916 104.11 139.867C103.249 141.915 103.276 143.158 106.237 145.919Z" fill="white"/>
<path d="M103.465 126.542C119.571 138.482 129.843 138.382 149.2 132.529C129.863 134.582 120.737 132.536 109.336 119.777C106.764 118.799 105.52 118.683 104.072 120.16C102.433 121.655 101.936 122.793 103.465 126.542Z" fill="white"/>
<path d="M111.62 106.59C120.92 124.353 130.214 128.744 150.199 131.928C131.889 125.337 124.561 119.516 119.858 103.069C117.967 101.067 116.898 100.421 114.95 101.117C112.822 101.746 111.878 102.552 111.62 106.59Z" fill="white"/>
<path d="M173.308 91.087C173.166 111.312 166.819 119.67 150.265 132.09C163.726 117.451 167.634 108.768 164.24 91.9181C165.016 89.2347 165.681 88.1472 167.762 87.8297C169.974 87.3658 171.2 87.6282 173.308 91.087Z" fill="white"/>
<path d="M153.609 84.6471C162.44 102.862 160.459 113.188 151.136 131.702C156.706 112.573 156.36 103.041 145.857 89.429C145.363 86.6753 145.477 85.4033 147.2 84.1921C148.976 82.7913 150.19 82.481 153.609 84.6471Z" fill="white"/>
<path d="M132.603 88.4142C148.569 100.858 151.359 111.004 151.188 131.747C147.724 112.112 143.199 103.709 127.77 96.1361C126.11 93.8826 125.65 92.6905 126.658 90.8411C127.63 88.7982 128.581 87.9824 132.603 88.4142Z" fill="white"/>
<rect x="149.454" y="131.097" width="0.955799" height="65.1064" transform="rotate(-39.267 149.454 131.097)" fill="white"/>
<rect x="186.152" y="179.006" width="4.59494" height="24.165" rx="2.29747" transform="rotate(-39.267 186.152 179.006)" fill="white"/>
<path d="M111.598 252.829C124.899 237.857 125.701 227.6 121.575 207.751C121.921 227.231 119.083 236.148 105.378 246.35C104.179 248.826 103.954 250.057 105.298 251.637C106.642 253.41 107.731 254.01 111.598 252.829Z" fill="white"/>
<path d="M93.4401 245.514C111.806 237.547 116.84 228.599 121.424 208.894C113.561 226.676 107.24 233.557 90.5103 237.035C88.3813 238.773 87.661 239.792 88.2179 241.787C88.6947 243.957 89.4323 244.958 93.4401 245.514Z" fill="white"/>
<path d="M80.2329 228.444C100.247 229.294 108.683 223.444 121.402 207.727C106.568 220.285 97.8748 223.714 81.2915 219.541C78.6163 220.175 77.5229 220.778 77.1546 222.815C76.638 224.973 76.8656 226.196 80.2329 228.444Z" fill="white"/>
<path d="M97.5653 167.227C115.004 177.492 119.076 187.182 121.575 207.751C115.612 188.749 110.044 181.01 93.7641 175.5C91.8278 173.482 91.2178 172.361 91.9805 170.399C92.6817 168.25 93.5202 167.319 97.5653 167.227Z" fill="white"/>
<path d="M82.1694 181.064C102.341 182.547 110.293 189.442 121.673 206.802C107.89 192.385 99.4649 187.905 82.4444 190.178C79.8144 189.225 78.7699 188.488 78.5803 186.388C78.2527 184.148 78.5894 182.94 82.1694 181.064Z" fill="white"/>
<path d="M74.9584 201.151C93.6909 193.559 103.865 196.23 121.738 206.78C103.013 199.935 93.4821 199.641 79.2338 209.21C76.4555 209.518 75.1939 209.319 74.0957 207.518C72.8116 205.652 72.5795 204.419 74.9584 201.151Z" fill="white"/>
<rect width="0.957035" height="65.0224" transform="matrix(-0.16177 -0.986828 0.987069 -0.160298 120.311 207.957)" fill="white"/>
<rect width="4.60089" height="24.1339" rx="2.30044" transform="matrix(-0.16177 -0.986828 0.987069 -0.160298 180.083 200.189)" fill="white"/>
<path d="M206.877 301.181C200.546 282.15 192.066 276.312 172.826 269.933C189.862 279.402 196.167 286.332 198.167 303.32C199.713 305.601 200.666 306.413 202.704 306.041C204.908 305.766 205.971 305.123 206.877 301.181Z" fill="white"/>
<path d="M191.491 313.243C193.751 293.337 188.513 284.489 173.739 270.637C185.214 286.365 188.02 295.292 182.69 311.529C183.133 314.245 183.657 315.381 185.662 315.899C187.778 316.573 189.013 316.437 191.491 313.243Z" fill="white"/>
<path d="M170.129 316.125C180.843 299.213 179.984 288.971 172.718 270.071C176.194 289.219 174.829 298.469 162.95 310.744C162.165 313.379 162.141 314.628 163.721 315.969C165.332 317.499 166.504 317.915 170.129 316.125Z" fill="white"/>
<path d="M125.773 270.412C143.354 260.452 153.773 261.784 172.826 269.933C153.403 265.57 143.926 266.513 131.04 277.853C128.328 278.519 127.053 278.485 125.734 276.84C124.224 275.155 123.836 273.962 125.773 270.412Z" fill="white"/>
<path d="M130.076 290.688C141.416 273.957 151.35 270.525 172.053 269.372C152.7 274.083 144.621 279.135 138.103 295.02C135.967 296.821 134.809 297.356 132.896 296.468C130.793 295.628 129.916 294.731 130.076 290.688Z" fill="white"/>
<path d="M143.871 307.008C146.638 286.973 154.023 279.498 172.066 269.304C156.805 282.095 151.799 290.203 152.98 307.346C151.862 309.907 151.06 310.9 148.953 310.949C146.698 311.125 145.514 310.708 143.871 307.008Z" fill="white"/>
<rect width="0.957035" height="65.0224" transform="matrix(-0.934976 -0.354711 0.353317 -0.935504 172.373 271.131)" fill="white"/>
<rect width="4.60089" height="24.1339" rx="2.30044" transform="matrix(-0.934976 -0.354711 0.353317 -0.935504 195.447 215.454)" fill="white"/>
<path d="M296.448 241.748C276.754 237.774 267.412 242.246 252.171 255.819C268.979 245.706 278.169 243.671 293.906 250.397C296.664 250.188 297.848 249.762 298.555 247.803C299.429 245.746 299.408 244.5 296.448 241.748Z" fill="white"/>
<path d="M299.139 261.154C283.023 249.265 272.708 249.415 253.242 255.374C272.67 253.223 281.824 255.23 293.21 267.963C295.789 268.93 297.037 269.04 298.498 267.553C300.152 266.047 300.656 264.904 299.139 261.154Z" fill="white"/>
<path d="M290.854 281.189C281.601 263.432 272.289 259.075 252.236 255.981C270.591 262.498 277.921 268.297 282.565 284.758C284.454 286.755 285.525 287.398 287.484 286.69C289.624 286.05 290.576 285.237 290.854 281.189Z" fill="white"/>
<path d="M228.836 297.023C229.075 276.753 235.488 268.345 252.171 255.819C238.584 270.554 234.618 279.275 237.945 296.146C237.153 298.839 236.48 299.932 234.389 300.26C232.165 300.736 230.935 300.479 228.836 297.023Z" fill="white"/>
<path d="M248.585 303.382C239.805 285.17 241.844 274.811 251.294 256.212C245.61 275.409 245.912 284.961 256.393 298.552C256.875 301.31 256.755 302.585 255.019 303.807C253.229 305.22 252.009 305.536 248.585 303.382Z" fill="white"/>
<path d="M269.697 299.506C253.724 287.111 250.972 276.956 251.242 256.167C254.627 275.828 259.13 284.228 274.587 291.744C276.243 293.994 276.7 295.187 275.678 297.045C274.692 299.097 273.733 299.919 269.697 299.506Z" fill="white"/>
<rect x="252.981" y="256.81" width="0.963516" height="64.9945" transform="rotate(140.733 252.981 256.81)" fill="white"/>
<rect x="216.36" y="208.971" width="4.63203" height="24.1235" rx="2.31602" transform="rotate(140.733 216.36 208.971)" fill="white"/>
<path d="M290.81 135.835C277.509 150.807 276.706 161.064 280.833 180.913C280.487 161.433 283.325 152.516 297.029 142.314C298.229 139.838 298.453 138.607 297.11 137.027C295.766 135.254 294.676 134.654 290.81 135.835Z" fill="white"/>
<path d="M308.968 143.15C290.601 151.117 285.567 160.065 280.984 179.77C288.847 161.988 295.168 155.107 311.897 151.63C314.027 149.891 314.747 148.872 314.19 146.877C313.713 144.707 312.976 143.706 308.968 143.15Z" fill="white"/>
<path d="M322.175 160.221C302.161 159.37 293.725 165.22 281.006 180.937C295.84 168.379 304.533 164.95 321.116 169.123C323.792 168.489 324.885 167.886 325.253 165.85C325.77 163.691 325.542 162.469 322.175 160.221Z" fill="white"/>
<path d="M304.843 221.437C287.404 211.172 283.332 201.482 280.833 180.913C286.795 199.915 292.364 207.654 308.644 213.164C310.58 215.182 311.19 216.303 310.427 218.265C309.726 220.414 308.888 221.345 304.843 221.437Z" fill="white"/>
<path d="M320.238 207.6C300.067 206.117 292.115 199.222 280.735 181.862C294.518 196.279 302.943 200.759 319.963 198.486C322.593 199.439 323.638 200.176 323.828 202.276C324.155 204.516 323.818 205.724 320.238 207.6Z" fill="white"/>
<path d="M327.449 187.513C308.717 195.105 298.543 192.434 280.669 181.884C299.395 188.729 308.926 189.023 323.174 179.454C325.952 179.146 327.214 179.345 328.312 181.146C329.596 183.012 329.828 184.245 327.449 187.513Z" fill="white"/>
<rect width="0.957035" height="65.0224" transform="matrix(0.16177 0.986828 -0.987069 0.160298 282.097 180.708)" fill="white"/>
<rect width="4.60089" height="24.1339" rx="2.30044" transform="matrix(0.16177 0.986828 -0.987069 0.160298 222.325 188.475)" fill="white"/>
<path d="M195.531 87.4834C201.862 106.515 210.342 112.353 229.582 118.731C212.546 109.263 206.241 102.332 204.241 85.3443C202.695 83.0633 201.742 82.2518 199.704 82.6232C197.499 82.8987 196.436 83.5415 195.531 87.4834Z" fill="white"/>
<path d="M210.916 75.4214C208.657 95.3274 213.895 104.176 228.668 118.028C217.194 102.299 214.388 93.3728 219.718 77.1354C219.274 74.4194 218.751 73.284 216.746 72.766C214.63 72.0911 213.395 72.2279 210.916 75.4214Z" fill="white"/>
<path d="M232.279 72.5396C221.565 89.4519 222.424 99.6932 229.69 118.594C226.213 99.4452 227.579 90.1951 239.458 77.9209C240.243 75.2854 240.267 74.0361 238.687 72.6956C237.075 71.1655 235.904 70.7498 232.279 72.5396Z" fill="white"/>
<path d="M276.635 118.253C259.054 128.212 248.635 126.881 229.582 118.732C249.005 123.095 258.482 122.152 271.368 110.811C274.08 110.146 275.355 110.179 276.673 111.824C278.184 113.509 278.572 114.702 276.635 118.253Z" fill="white"/>
<path d="M272.332 97.9762C260.991 114.707 251.058 118.139 230.355 119.292C249.708 114.581 257.787 109.529 264.304 93.6442C266.441 91.8437 267.599 91.3081 269.512 92.197C271.615 93.0367 272.492 93.934 272.332 97.9762Z" fill="white"/>
<path d="M258.536 81.6562C255.77 101.692 248.385 109.167 230.342 119.36C245.603 106.57 250.609 98.4611 249.428 81.3187C250.546 78.7573 251.347 77.7642 253.454 77.7161C255.71 77.5395 256.893 77.9567 258.536 81.6562Z" fill="white"/>
<rect width="0.957035" height="65.0224" transform="matrix(0.934976 0.354711 -0.353317 0.935504 230.035 117.534)" fill="white"/>
<rect width="4.60089" height="24.1339" rx="2.30044" transform="matrix(0.934976 0.354711 -0.353317 0.935504 206.961 173.21)" fill="white"/>
</g>
<defs>
<filter id="filter0_d_111_1089" x="0" y="0" width="399.992" height="396.156" filterUnits="userSpaceOnUse" color-interpolation-filters="sRGB">
<feFlood flood-opacity="0" result="BackgroundImageFix"/>
<feColorMatrix in="SourceAlpha" type="matrix" values="0 0 0 0 0 0 0 0 0 0 0 0 0 0 0 0 0 0 127 0" result="hardAlpha"/>
<feOffset dy="4"/>
<feGaussianBlur stdDeviation="2"/>
<feComposite in2="hardAlpha" operator="out"/>
<feColorMatrix type="matrix" values="0 0 0 0 0 0 0 0 0 0 0 0 0 0 0 0 0 0 0.25 0"/>
<feBlend mode="normal" in2="BackgroundImageFix" result="effect1_dropShadow_111_1089"/>
<feBlend mode="normal" in="SourceGraphic" in2="effect1_dropShadow_111_1089" result="shape"/>
</filter>
</defs>
</svg>
