<?xml version="1.0" encoding="UTF-8"?>
<!DOCTYPE svg PUBLIC "-//W3C//DTD SVG 1.1//EN" "http://www.w3.org/Graphics/SVG/1.1/DTD/svg11.dtd">
<svg xmlns="http://www.w3.org/2000/svg" version="1.1" width="185px" height="367px" style="shape-rendering:geometricPrecision; text-rendering:geometricPrecision; image-rendering:optimizeQuality; fill-rule:evenodd; clip-rule:evenodd" xmlns:xlink="http://www.w3.org/1999/xlink">
<g><path style="opacity:0.012" fill="#fefffe" d="M 102.5,14.5 C 102.897,13.475 103.563,13.3083 104.5,14C 103.906,14.4643 103.239,14.631 102.5,14.5 Z"/></g>
<g><path style="opacity:0.601" fill="#ebebeb" d="M 116.5,22.5 C 116.719,21.325 116.386,20.325 115.5,19.5C 112.809,19.7891 110.143,20.1224 107.5,20.5C 108.22,16.8425 109.72,16.1758 112,18.5C 113.482,16.2189 115.149,16.2189 117,18.5C 117.765,20.0657 117.598,21.3991 116.5,22.5 Z"/></g>
<g><path style="opacity:0.055" fill="#ecedec" d="M 99.5,19.5 C 100.833,20.1667 100.833,20.1667 99.5,19.5 Z"/></g>
<g><path style="opacity:0.02" fill="#fefffe" d="M 99.5,20.5 C 98.8333,21.1667 98.8333,21.1667 99.5,20.5 Z"/></g>
<g><path style="opacity:0.997" fill="#d9d9d9" d="M 116.5,22.5 C 116.34,24.1992 116.506,25.8659 117,27.5C 117.716,25.1209 118.883,23.1209 120.5,21.5C 120.5,24.1667 120.5,26.8333 120.5,29.5C 120.369,30.2389 120.536,30.9056 121,31.5C 122.585,30.6243 123.585,29.2909 124,27.5C 124.21,29.0581 124.71,30.3915 125.5,31.5C 125.898,37.9095 128.398,38.9095 133,34.5C 133.399,34.7284 133.565,35.0618 133.5,35.5C 133.5,38.1667 133.5,40.8333 133.5,43.5C 136.698,44.0356 139.365,43.369 141.5,41.5C 142.338,41.8417 142.672,42.5084 142.5,43.5C 144.298,53.1874 145.464,62.8541 146,72.5C 146.741,71.3595 147.575,71.3595 148.5,72.5C 149.466,74.396 149.799,76.396 149.5,78.5C 148.503,78.4701 147.836,78.9701 147.5,80C 148.102,85.6453 148.769,91.1453 149.5,96.5C 147.964,165.536 146.297,234.536 144.5,303.5C 143.833,303.5 143.5,303.167 143.5,302.5C 143.5,302.167 143.5,301.833 143.5,301.5C 143.5,296.5 143.5,291.5 143.5,286.5C 143.5,285.5 143.5,284.5 143.5,283.5C 143.666,278.156 143.499,272.823 143,267.5C 141.893,266.288 141.393,266.621 141.5,268.5C 141.469,271.959 140.802,275.292 139.5,278.5C 139.624,279.107 139.957,279.44 140.5,279.5C 140.567,280.959 140.234,282.292 139.5,283.5C 138.522,283.189 137.855,282.522 137.5,281.5C 138.428,280.232 138.595,278.899 138,277.5C 136.523,281.696 135.689,286.029 135.5,290.5C 135.5,291.167 135.5,291.833 135.5,292.5C 134.903,292.735 134.57,293.235 134.5,294C 135.056,295.011 135.722,295.844 136.5,296.5C 135.659,298.379 135.325,300.379 135.5,302.5C 134.504,302.414 133.671,302.748 133,303.5C 132.517,302.552 132.351,301.552 132.5,300.5C 132.5,298.833 132.5,297.167 132.5,295.5C 133.167,295.5 133.5,295.167 133.5,294.5C 134.08,290.121 134.58,285.788 135,281.5C 134.667,282.167 134.333,282.833 134,283.5C 133.667,282.167 133.333,280.833 133,279.5C 131.127,288.805 129.294,297.805 127.5,306.5C 125.927,296.094 124.593,296.427 123.5,307.5C 122.532,309.607 122.198,311.941 122.5,314.5C 121.549,315.919 121.216,317.585 121.5,319.5C 121.5,319.833 121.5,320.167 121.5,320.5C 120.265,320.721 119.265,321.388 118.5,322.5C 117.056,321.019 116.389,321.352 116.5,323.5C 116.5,324.167 116.167,324.5 115.5,324.5C 112.801,324.481 111.135,322.814 110.5,319.5C 108.381,319.468 107.048,320.468 106.5,322.5C 105.965,324.446 104.632,325.446 102.5,325.5C 101.549,326.919 101.216,328.585 101.5,330.5C 100.5,330.5 99.5,330.5 98.5,330.5C 97.8333,330.833 97.1667,331.167 96.5,331.5C 94.9724,332.802 93.9724,334.469 93.5,336.5C 93.0296,335.307 92.0296,334.64 90.5,334.5C 89.5,334.667 88.5,334.833 87.5,335C 85.9363,337.971 84.2696,340.804 82.5,343.5C 81.7321,342.737 81.2321,341.737 81,340.5C 80.0855,344.185 79.4189,343.852 79,339.5C 78.5604,341.866 78.0604,344.199 77.5,346.5C 77.5,346.833 77.5,347.167 77.5,347.5C 76.7168,345.924 75.5501,344.591 74,343.5C 73.6667,344.167 73.3333,344.833 73,345.5C 70.3422,344.306 69.1756,345.306 69.5,348.5C 69.5,349.167 69.5,349.833 69.5,350.5C 69.1667,350.5 68.8333,350.5 68.5,350.5C 68.5,349.833 68.5,349.167 68.5,348.5C 68.6641,345.813 68.4974,343.146 68,340.5C 65.7486,348.008 64.5819,355.675 64.5,363.5C 64.19,364.738 63.69,364.738 63,363.5C 62.7083,359.118 62.2083,354.785 61.5,350.5C 61.7254,344.145 61.892,337.812 62,331.5C 61.6667,332.5 61.3333,333.5 61,334.5C 60.3292,333.748 59.4959,333.414 58.5,333.5C 58.5,331.833 58.5,330.167 58.5,328.5C 58.5432,324.107 58.0432,323.774 57,327.5C 56.3333,326.167 55.6667,326.167 55,327.5C 54.5045,329.473 54.3379,331.473 54.5,333.5C 54.5,333.833 54.5,334.167 54.5,334.5C 53.1751,333.047 52.3418,333.381 52,335.5C 50.4434,338.666 49.6101,342 49.5,345.5C 49.7947,347.735 49.4614,349.735 48.5,351.5C 47.8592,353.042 46.8592,354.376 45.5,355.5C 44.8076,354.975 44.3076,354.308 44,353.5C 43.79,355.058 43.29,356.391 42.5,357.5C 42.5,356.5 42.5,355.5 42.5,354.5C 42.955,352.633 43.6216,350.8 44.5,349C 43.9461,346.176 43.4461,343.343 43,340.5C 42.6667,342.167 42.3333,343.833 42,345.5C 41.7216,344.584 41.2216,343.918 40.5,343.5C 39.5318,341.393 39.1984,339.059 39.5,336.5C 39.8275,331.456 39.4941,326.456 38.5,321.5C 37.52,324.086 37.1866,326.753 37.5,329.5C 37.2792,332.097 36.7792,332.097 36,329.5C 35.2602,323.842 34.5935,318.175 34,312.5C 33.9975,301.579 33.1642,290.745 31.5,280C 31.6483,278.744 31.9816,277.577 32.5,276.5C 32.8718,270.57 32.2051,264.903 30.5,259.5C 29.5605,234.03 28.8938,208.53 28.5,183C 28.5034,163.417 29.5034,143.917 31.5,124.5C 33.885,117.1 35.7183,109.434 37,101.5C 39.7497,95.3411 41.9163,89.0077 43.5,82.5C 48.1689,78.7043 50.6689,73.7043 51,67.5C 50.2607,69.2205 49.4274,70.8872 48.5,72.5C 47.8933,72.3764 47.56,72.0431 47.5,71.5C 48.9893,66.5427 50.3227,61.5427 51.5,56.5C 54.7452,54.6761 55.7452,52.0094 54.5,48.5C 57.9869,47.5168 59.3202,45.1834 58.5,41.5C 58.5,41.1667 58.5,40.8333 58.5,40.5C 60.335,39.8777 61.5017,38.5444 62,36.5C 62.7914,37.745 63.2914,39.0783 63.5,40.5C 63.5,40.8333 63.5,41.1667 63.5,41.5C 61.0181,43.5027 60.0181,46.1694 60.5,49.5C 60.5,49.8333 60.5,50.1667 60.5,50.5C 59.4017,51.6009 59.235,52.9343 60,54.5C 61.4813,53.5291 62.3146,52.1958 62.5,50.5C 63.9063,50.0269 64.573,49.0269 64.5,47.5C 64.4021,45.4471 65.0687,43.7804 66.5,42.5C 68.2624,41.7377 69.2624,40.4044 69.5,38.5C 70.397,37.4019 71.2303,37.4019 72,38.5C 74.4312,35.583 75.5979,32.2497 75.5,28.5C 75.9046,27.4502 76.5712,27.4502 77.5,28.5C 78.3857,29.325 78.719,30.325 78.5,31.5C 77.4265,32.2506 77.2599,33.2506 78,34.5C 80.1897,33.4162 81.8563,34.0829 83,36.5C 83.7914,35.255 84.2914,33.9217 84.5,32.5C 86.7264,34.18 88.3931,33.8466 89.5,31.5C 91.4482,28.3785 93.6148,25.3785 96,22.5C 95.8657,24.1893 95.3657,25.856 94.5,27.5C 92.7615,29.1195 92.2615,31.1195 93,33.5C 94.7787,30.7236 95.7787,31.0569 96,34.5C 97.3333,31.8333 98.6667,31.8333 100,34.5C 100.791,33.255 101.291,31.9217 101.5,30.5C 101.527,28.8007 102.194,27.4674 103.5,26.5C 104.351,24.1184 105.684,22.1184 107.5,20.5C 110.143,20.1224 112.809,19.7891 115.5,19.5C 116.386,20.325 116.719,21.325 116.5,22.5 Z M 43.5,318.5 C 43.8432,320.483 43.1765,321.817 41.5,322.5C 41.1568,320.517 41.8235,319.183 43.5,318.5 Z"/></g>
<g><path style="opacity:0.008" fill="#f9f9f9" d="M 100.5,26.5 C 99.475,26.1034 99.3083,25.4368 100,24.5C 100.464,25.0944 100.631,25.7611 100.5,26.5 Z"/></g>
<g><path style="opacity:0.162" fill="#f9f9f9" d="M 122.5,21.5 C 122.037,24.3303 121.371,26.997 120.5,29.5C 120.5,26.8333 120.5,24.1667 120.5,21.5C 120.938,20.4937 121.604,20.4937 122.5,21.5 Z"/></g>
<g><path style="opacity:0.664" fill="#e5e5e5" d="M 125.5,31.5 C 124.71,30.3915 124.21,29.0581 124,27.5C 123.585,29.2909 122.585,30.6243 121,31.5C 120.536,30.9056 120.369,30.2389 120.5,29.5C 121.371,26.997 122.037,24.3303 122.5,21.5C 123.397,20.4019 124.23,20.4019 125,21.5C 125.498,24.8168 125.665,28.1501 125.5,31.5 Z"/></g>
<g><path style="opacity:0.022" fill="#fefefe" d="M 100.5,26.5 C 101.5,26.5 102.5,26.5 103.5,26.5C 102.194,27.4674 101.527,28.8007 101.5,30.5C 101.167,30.5 100.833,30.5 100.5,30.5C 99.8333,30.5 99.5,30.8333 99.5,31.5C 98.6618,31.1583 98.3284,30.4916 98.5,29.5C 100.048,29.1788 100.715,28.1788 100.5,26.5 Z"/></g>
<g><path style="opacity:0.281" fill="#ededed" d="M 63.5,40.5 C 63.2914,39.0783 62.7914,37.745 62,36.5C 61.5017,38.5444 60.335,39.8777 58.5,40.5C 60.702,35.6855 63.8687,31.6855 68,28.5C 68.3742,29.4162 68.8742,30.2496 69.5,31C 67.8502,34.4845 65.8502,37.6512 63.5,40.5 Z"/></g>
<g><path style="opacity:0.462" fill="#eeeeee" d="M 98.5,29.5 C 98.3284,30.4916 98.6618,31.1583 99.5,31.5C 100.167,31.5 100.5,31.1667 100.5,30.5C 100.833,30.5 101.167,30.5 101.5,30.5C 101.291,31.9217 100.791,33.255 100,34.5C 98.6667,31.8333 97.3333,31.8333 96,34.5C 95.7787,31.0569 94.7787,30.7236 93,33.5C 92.2615,31.1195 92.7615,29.1195 94.5,27.5C 96.5902,26.2092 97.9236,26.8758 98.5,29.5 Z"/></g>
<g><path style="opacity:0.122" fill="#e2e2e2" d="M 56.5,33.5 C 56.369,32.7611 56.5357,32.0944 57,31.5C 57.6917,32.4368 57.525,33.1034 56.5,33.5 Z"/></g>
<g><path style="opacity:0.48" fill="#eeeeee" d="M 84.5,32.5 C 84.2914,33.9217 83.7914,35.255 83,36.5C 81.8563,34.0829 80.1897,33.4162 78,34.5C 77.2599,33.2506 77.4265,32.2506 78.5,31.5C 80.3841,31.2882 81.7174,30.2882 82.5,28.5C 83.5896,29.3914 83.5896,30.3914 82.5,31.5C 82.9569,32.2975 83.6236,32.6309 84.5,32.5 Z"/></g>
<g><path style="opacity:0.366" fill="#f2f2f2" d="M 84.5,32.5 C 85.9187,31.5489 87.5853,31.2155 89.5,31.5C 88.3931,33.8466 86.7264,34.18 84.5,32.5 Z"/></g>
<g><path style="opacity:0.035" fill="#e2e3e2" d="M 56.5,33.5 C 55.8333,34.1667 55.8333,34.1667 56.5,33.5 Z"/></g>
<g><path style="opacity:0.22" fill="#ededed" d="M 75.5,28.5 C 75.5979,32.2497 74.4312,35.583 72,38.5C 71.2303,37.4019 70.397,37.4019 69.5,38.5C 71.5165,35.1262 73.5165,31.7929 75.5,28.5 Z"/></g>
<g><path style="opacity:0.357" fill="#f3f3f3" d="M 133.5,35.5 C 134.289,35.7828 134.956,36.2828 135.5,37C 134.594,38.6995 134.261,40.5328 134.5,42.5C 136.95,42.702 139.283,42.3686 141.5,41.5C 139.365,43.369 136.698,44.0356 133.5,43.5C 133.5,40.8333 133.5,38.1667 133.5,35.5 Z"/></g>
<g><path style="opacity:0.299" fill="#e9e9e9" d="M 142.5,43.5 C 142.672,42.5084 142.338,41.8417 141.5,41.5C 141.238,40.0222 141.571,38.6888 142.5,37.5C 143.793,39.6365 143.793,41.6365 142.5,43.5 Z"/></g>
<g><path style="opacity:0.169" fill="#f0f0f0" d="M 30.5,36.5 C 31.0431,36.56 31.3764,36.8933 31.5,37.5C 30.9017,38.7946 30.4017,40.1279 30,41.5C 29.3603,39.735 29.5269,38.0683 30.5,36.5 Z"/></g>
<g><path style="opacity:0.455" fill="#f0f0f0" d="M 69.5,38.5 C 69.2624,40.4044 68.2624,41.7377 66.5,42.5C 66.7376,40.5956 67.7376,39.2623 69.5,38.5 Z"/></g>
<g><path style="opacity:0.016" fill="#fefffe" d="M 28.5,43.5 C 28.56,42.9569 28.8933,42.6236 29.5,42.5C 30.7733,43.2565 30.7733,43.9232 29.5,44.5C 29.5,43.8333 29.1667,43.5 28.5,43.5 Z"/></g>
<g><path style="opacity:0.722" fill="#e8e8e8" d="M 58.5,41.5 C 59.3202,45.1834 57.9869,47.5168 54.5,48.5C 55.5839,45.9959 56.9172,43.6626 58.5,41.5 Z"/></g>
<g><path style="opacity:0.494" fill="#e5e5e5" d="M 28.5,43.5 C 29.1667,43.5 29.5,43.8333 29.5,44.5C 29.6621,46.5273 29.4955,48.5273 29,50.5C 28.5831,51.756 27.7498,52.4226 26.5,52.5C 26.4054,49.3033 27.0721,46.3033 28.5,43.5 Z"/></g>
<g><path style="opacity:0.008" fill="#fefffe" d="M 51.5,46.5 C 52.8333,47.1667 52.8333,47.1667 51.5,46.5 Z"/></g>
<g><path style="opacity:0.322" fill="#eeeeee" d="M 63.5,41.5 C 63.2671,44.5418 62.2671,47.2084 60.5,49.5C 60.0181,46.1694 61.0181,43.5027 63.5,41.5 Z"/></g>
<g><path style="opacity:0.208" fill="#f2f2f2" d="M 64.5,47.5 C 64.573,49.0269 63.9063,50.0269 62.5,50.5C 62.427,48.9731 63.0937,47.9731 64.5,47.5 Z"/></g>
<g><path style="opacity:0.606" fill="#ebebeb" d="M 54.5,48.5 C 55.7452,52.0094 54.7452,54.6761 51.5,56.5C 51.5,55.8333 51.5,55.1667 51.5,54.5C 52.2028,52.3713 53.2028,50.3713 54.5,48.5 Z"/></g>
<g><path style="opacity:0.176" fill="#f3f3f3" d="M 60.5,50.5 C 60.9377,51.5063 61.6043,51.5063 62.5,50.5C 62.3146,52.1958 61.4813,53.5291 60,54.5C 59.235,52.9343 59.4017,51.6009 60.5,50.5 Z"/></g>
<g><path style="opacity:0.029" fill="#f4f4f4" d="M 51.5,54.5 C 50.6365,55.463 49.9698,55.463 49.5,54.5C 50.7684,49.304 51.4351,49.304 51.5,54.5 Z"/></g>
<g><path style="opacity:0.137" fill="#efefef" d="M 26.5,52.5 C 26.628,54.6547 26.128,56.6547 25,58.5C 24.2615,56.1195 24.7615,54.1195 26.5,52.5 Z"/></g>
<g><path style="opacity:0.049" fill="#efefef" d="M 24.5,60.5 C 25.7733,61.0768 25.7733,61.7435 24.5,62.5C 23.537,62.0302 23.537,61.3635 24.5,60.5 Z"/></g>
<g><path style="opacity:0.078" fill="#f5f5f5" d="M 51.5,56.5 C 50.3227,61.5427 48.9893,66.5427 47.5,71.5C 47.1667,71.5 46.8333,71.5 46.5,71.5C 46.8884,67.0068 47.8884,62.6734 49.5,58.5C 50.1667,57.8333 50.8333,57.1667 51.5,56.5 Z"/></g>
<g><path style="opacity:0.459" fill="#e5e5e5" d="M 49.5,58.5 C 47.8884,62.6734 46.8884,67.0068 46.5,71.5C 46.8333,71.5 47.1667,71.5 47.5,71.5C 47.56,72.0431 47.8933,72.3764 48.5,72.5C 49.4274,70.8872 50.2607,69.2205 51,67.5C 50.6689,73.7043 48.1689,78.7043 43.5,82.5C 41.9163,89.0077 39.7497,95.3411 37,101.5C 35.7183,109.434 33.885,117.1 31.5,124.5C 35.1088,101.732 40.4422,79.3989 47.5,57.5C 48.944,56.019 49.6106,56.3523 49.5,58.5 Z"/></g>
<g><path style="opacity:0.176" fill="#f8f8f8" d="M 46.5,71.5 C 46.5358,74.461 45.5358,76.7943 43.5,78.5C 44.0549,75.904 45.0549,73.5707 46.5,71.5 Z"/></g>
<g><path style="opacity:0.542" fill="#e5e5e5" d="M 149.5,78.5 C 149.5,84.5 149.5,90.5 149.5,96.5C 148.769,91.1453 148.102,85.6453 147.5,80C 147.836,78.9701 148.503,78.4701 149.5,78.5 Z"/></g>
<g><path style="opacity:0.604" fill="#eeeeee" d="M 30.5,259.5 C 32.2051,264.903 32.8718,270.57 32.5,276.5C 31.6942,275.003 31.0276,273.336 30.5,271.5C 30.8566,267.593 30.8566,263.593 30.5,259.5 Z"/></g>
<g><path style="opacity:0.29" fill="#e7e7e7" d="M 143.5,283.5 C 141.952,283.179 141.285,282.179 141.5,280.5C 142.451,279.081 142.784,277.415 142.5,275.5C 142.5,275.167 142.5,274.833 142.5,274.5C 142.795,272.265 142.461,270.265 141.5,268.5C 141.393,266.621 141.893,266.288 143,267.5C 143.499,272.823 143.666,278.156 143.5,283.5 Z"/></g>
<g><path style="opacity:0.071" fill="#f5f5f5" d="M 141.5,268.5 C 142.461,270.265 142.795,272.265 142.5,274.5C 141.167,274.833 141.167,275.167 142.5,275.5C 142.784,277.415 142.451,279.081 141.5,280.5C 141.5,279.833 141.167,279.5 140.5,279.5C 139.957,279.44 139.624,279.107 139.5,278.5C 140.802,275.292 141.469,271.959 141.5,268.5 Z"/></g>
<g><path style="opacity:0.163" fill="#eeeeee" d="M 133.5,294.5 C 132.833,294.5 132.5,294.833 132.5,295.5C 130.689,301.388 128.855,307.388 127,313.5C 126.667,313.167 126.333,312.833 126,312.5C 125.703,315.914 125.036,319.247 124,322.5C 123.667,321.167 123.333,319.833 123,318.5C 122.617,319.056 122.117,319.389 121.5,319.5C 121.216,317.585 121.549,315.919 122.5,314.5C 122.198,311.941 122.532,309.607 123.5,307.5C 124.959,307.567 126.292,307.234 127.5,306.5C 129.294,297.805 131.127,288.805 133,279.5C 133.333,280.833 133.667,282.167 134,283.5C 134.333,282.833 134.667,282.167 135,281.5C 134.58,285.788 134.08,290.121 133.5,294.5 Z"/></g>
<g><path style="opacity:0.155" fill="#efefef" d="M 143.5,286.5 C 143.5,291.5 143.5,296.5 143.5,301.5C 142.787,296.632 142.121,291.632 141.5,286.5C 141.97,285.537 142.637,285.537 143.5,286.5 Z"/></g>
<g><path style="opacity:0.07" fill="#f1f1f1" d="M 139.5,283.5 C 138.401,287.93 137.401,292.264 136.5,296.5C 135.722,295.844 135.056,295.011 134.5,294C 134.57,293.235 134.903,292.735 135.5,292.5C 136.734,292.715 136.734,292.048 135.5,290.5C 135.689,286.029 136.523,281.696 138,277.5C 138.595,278.899 138.428,280.232 137.5,281.5C 137.855,282.522 138.522,283.189 139.5,283.5 Z"/></g>
<g><path style="opacity:0.365" fill="#e6e6e6" d="M 127.5,306.5 C 126.292,307.234 124.959,307.567 123.5,307.5C 124.593,296.427 125.927,296.094 127.5,306.5 Z"/></g>
<g><path style="opacity:0.176" fill="#f1f1f1" d="M 132.5,300.5 C 132.351,301.552 132.517,302.552 133,303.5C 133.671,302.748 134.504,302.414 135.5,302.5C 134.139,304.599 132.639,306.599 131,308.5C 130.807,305.636 131.307,302.97 132.5,300.5 Z"/></g>
<g><path style="opacity:0.265" fill="#ececec" d="M 143.5,302.5 C 143.5,303.167 143.833,303.5 144.5,303.5C 144.48,314.063 143.813,314.063 142.5,303.5C 142.624,302.893 142.957,302.56 143.5,302.5 Z"/></g>
<g><path style="opacity:0.403" fill="#e7e7e7" d="M 43.5,316.5 C 42.609,317.11 41.609,317.443 40.5,317.5C 40.6846,305.035 41.6846,304.702 43.5,316.5 Z"/></g>
<g><path style="opacity:0.071" fill="#f6f6f6" d="M 43.5,316.5 C 43.5,317.167 43.5,317.833 43.5,318.5C 41.8235,319.183 41.1568,320.517 41.5,322.5C 41.1667,322.5 40.8333,322.5 40.5,322.5C 40.5,320.833 40.5,319.167 40.5,317.5C 41.609,317.443 42.609,317.11 43.5,316.5 Z"/></g>
<g><path style="opacity:0.055" fill="#eeeeee" d="M 126.5,317.5 C 127.573,318.251 127.74,319.251 127,320.5C 126.517,319.552 126.351,318.552 126.5,317.5 Z"/></g>
<g><path style="opacity:0.342" fill="#e7e7e7" d="M 121.5,320.5 C 121.185,324.904 119.518,325.904 116.5,323.5C 116.389,321.352 117.056,321.019 118.5,322.5C 119.265,321.388 120.265,320.721 121.5,320.5 Z"/></g>
<g><path style="opacity:0.297" fill="#f2f2f2" d="M 39.5,336.5 C 38.8333,334.167 38.1667,331.833 37.5,329.5C 37.1866,326.753 37.52,324.086 38.5,321.5C 39.4941,326.456 39.8275,331.456 39.5,336.5 Z"/></g>
<g><path style="opacity:0.249" fill="#ececec" d="M 115.5,324.5 C 115.539,325.756 115.039,326.756 114,327.5C 111.6,325.585 109.1,323.919 106.5,322.5C 107.048,320.468 108.381,319.468 110.5,319.5C 111.135,322.814 112.801,324.481 115.5,324.5 Z"/></g>
<g><path style="opacity:0.725" fill="#eaeaea" d="M 58.5,328.5 C 56.4658,329.591 55.1324,331.257 54.5,333.5C 54.3379,331.473 54.5045,329.473 55,327.5C 55.6667,326.167 56.3333,326.167 57,327.5C 58.0432,323.774 58.5432,324.107 58.5,328.5 Z"/></g>
<g><path style="opacity:0.222" fill="#e6e6e6" d="M 102.5,325.5 C 102.543,328.91 102.043,332.243 101,335.5C 99.6283,334.09 98.795,332.423 98.5,330.5C 99.5,330.5 100.5,330.5 101.5,330.5C 101.216,328.585 101.549,326.919 102.5,325.5 Z"/></g>
<g><path style="opacity:0.43" fill="#ededed" d="M 61.5,350.5 C 59.6247,345.11 58.6247,339.444 58.5,333.5C 59.4959,333.414 60.3292,333.748 61,334.5C 61.3333,333.5 61.6667,332.5 62,331.5C 61.892,337.812 61.7254,344.145 61.5,350.5 Z"/></g>
<g><path style="opacity:0.174" fill="#f2f2f2" d="M 54.5,334.5 C 54.4249,337.206 54.0916,339.873 53.5,342.5C 52.5,342.5 51.5,342.5 50.5,342.5C 50.7373,343.791 50.404,344.791 49.5,345.5C 49.6101,342 50.4434,338.666 52,335.5C 52.3418,333.381 53.1751,333.047 54.5,334.5 Z"/></g>
<g><path style="opacity:0.374" fill="#ededed" d="M 93.5,336.5 C 91.9317,335.527 90.265,335.36 88.5,336C 87.2766,338.052 86.2766,340.219 85.5,342.5C 84.5832,343.127 83.5832,343.461 82.5,343.5C 84.2696,340.804 85.9363,337.971 87.5,335C 88.5,334.833 89.5,334.667 90.5,334.5C 92.0296,334.64 93.0296,335.307 93.5,336.5 Z"/></g>
<g><path style="opacity:0.273" fill="#e7e7e7" d="M 96.5,331.5 C 95.2475,333.339 95.2475,335.172 96.5,337C 95.9103,338.509 95.2436,340.009 94.5,341.5C 92.5764,340.035 92.2431,338.368 93.5,336.5C 93.9724,334.469 94.9724,332.802 96.5,331.5 Z"/></g>
<g><path style="opacity:0.808" fill="#e4e4e4" d="M 42.5,354.5 C 41.0966,351.091 40.4299,347.425 40.5,343.5C 41.2216,343.918 41.7216,344.584 42,345.5C 42.3333,343.833 42.6667,342.167 43,340.5C 43.4461,343.343 43.9461,346.176 44.5,349C 43.6216,350.8 42.955,352.633 42.5,354.5 Z"/></g>
<g><path style="opacity:0.225" fill="#ebebeb" d="M 77.5,347.5 C 77.0368,349.861 75.7035,351.528 73.5,352.5C 73.1609,350.838 71.8276,349.504 69.5,348.5C 69.1756,345.306 70.3422,344.306 73,345.5C 73.3333,344.833 73.6667,344.167 74,343.5C 75.5501,344.591 76.7168,345.924 77.5,347.5 Z"/></g>
<g><path style="opacity:0.137" fill="#ececec" d="M 82.5,343.5 C 81.4489,344.222 80.7822,345.222 80.5,346.5C 79.6981,347.952 79.1981,349.618 79,351.5C 78.8019,349.618 78.3019,347.952 77.5,346.5C 78.0604,344.199 78.5604,341.866 79,339.5C 79.4189,343.852 80.0855,344.185 81,340.5C 81.2321,341.737 81.7321,342.737 82.5,343.5 Z"/></g>
<g><path style="opacity:0.01" fill="#fefffe" d="M 80.5,346.5 C 81.525,346.897 81.6917,347.563 81,348.5C 80.5357,347.906 80.369,347.239 80.5,346.5 Z"/></g>
<g><path style="opacity:0.004" fill="#fefffe" d="M 68.5,350.5 C 68.8333,350.5 69.1667,350.5 69.5,350.5C 70.5037,353.105 70.1704,353.105 68.5,350.5 Z"/></g>
<g><path style="opacity:0.381" fill="#ededed" d="M 48.5,351.5 C 48.0195,356.53 47.3529,361.53 46.5,366.5C 45.8333,366.5 45.1667,366.5 44.5,366.5C 43.7287,363.546 43.062,360.546 42.5,357.5C 43.29,356.391 43.79,355.058 44,353.5C 44.3076,354.308 44.8076,354.975 45.5,355.5C 46.8592,354.376 47.8592,353.042 48.5,351.5 Z"/></g>
<g><path style="opacity:0.322" fill="#eeeeee" d="M 68.5,348.5 C 67.8826,348.611 67.3826,348.944 67,349.5C 66.7132,351.891 66.2132,354.224 65.5,356.5C 66.2943,358.991 65.961,361.324 64.5,363.5C 64.5819,355.675 65.7486,348.008 68,340.5C 68.4974,343.146 68.6641,345.813 68.5,348.5 Z"/></g>
</svg>
