<svg width="132" height="223" viewBox="0 0 132 223" fill="none" xmlns="http://www.w3.org/2000/svg">
<rect width="122.13" height="104.831" transform="matrix(0.97437 0.224951 0 -1 7.00024 108.37)" fill="black" fill-opacity="0.1"/>
<rect width="135.715" height="108.485" transform="matrix(0.906308 -0.422618 0 -1 3.00024 189.697)" fill="black" fill-opacity="0.1"/>
<rect width="119.63" height="6.6003" transform="matrix(0.978249 0.207435 0.207435 -0.978249 7.30493 6.45703)" fill="black"/>
<rect width="135.403" height="6.6003" transform="matrix(0.923837 -0.382785 -0.382785 -0.923837 3.47583 82.835)" fill="black"/>
<rect width="129.798" height="6.6003" transform="matrix(0 -1 -1 0 31.9424 137.851)" fill="black"/>
<rect width="128" height="7" transform="matrix(0 -1 -1 0 116 161)" fill="black"/>
<rect width="127" height="7" transform="matrix(0 -1 -1 0 55.0002 187)" fill="black"/>
<path d="M131 131L3 104V222L131 171.5V131Z" fill="black" stroke="black"/>
</svg>
